<svg width="40" height="40" viewBox="0 0 40 40" fill="none" xmlns="http://www.w3.org/2000/svg">
<path d="M27.028 16.196C24.7089 16.196 24.3879 18.5097 24.3879 18.5097H29.315C29.315 18.5097 29.3471 16.196 27.028 16.196ZM15.8498 18.5097H11.4845V22.5266H15.6332C16.2591 22.5105 17.4307 22.3338 17.4307 20.5744C17.4307 18.4856 15.8498 18.5097 15.8498 18.5097Z" fill="#672C02"/>
<path d="M20.2807 0C10.7377 0 3 7.82762 3 17.4814C3 27.1352 10.7377 34.9628 20.2807 34.9628C29.8237 34.9628 37.5614 27.1352 37.5614 17.4814C37.5614 7.82762 29.8237 0 20.2807 0ZM23.922 10.7386H29.8699V12.5336H23.922V10.7386ZM20.9133 20.1661C20.9133 24.6145 16.3308 24.474 16.3308 24.474H8.83224V9.88013H16.3308C18.6143 9.88013 20.4118 11.1522 20.4118 13.7666C20.4118 16.381 18.2132 16.5449 18.2132 16.5449C21.1139 16.5449 20.9133 20.1661 20.9133 20.1661ZM32.0377 19.9241H24.5623C24.5623 22.6322 27.1004 22.4605 27.1004 22.4605C29.4996 22.4605 29.4148 20.8919 29.4148 20.8919H31.9529C31.9529 25.0593 27.0155 24.7706 27.0155 24.7706C21.0984 24.7706 21.4765 19.1905 21.4765 19.1905C21.4765 19.1905 21.4687 13.5871 27.0155 13.5871C32.8555 13.5949 32.0377 19.9241 32.0377 19.9241Z" fill="#672C02"/>
<path d="M16.9091 14.4045C16.9091 12.846 15.8498 12.846 15.8498 12.846H11.4845V16.196H15.577C16.2832 16.196 16.9091 15.963 16.9091 14.4045Z" fill="#672C02"/>
</svg>
