<svg width="40" height="40" viewBox="0 0 40 40" fill="none" xmlns="http://www.w3.org/2000/svg">
<path d="M27.028 19.196C24.7089 19.196 24.3879 21.5097 24.3879 21.5097H29.315C29.315 21.5097 29.3471 19.196 27.028 19.196ZM15.8498 21.5097H11.4845V25.5266H15.6332C16.2591 25.5105 17.4307 25.3338 17.4307 23.5744C17.4307 21.4856 15.8498 21.5097 15.8498 21.5097Z" fill="#672C02"/>
<path d="M20.2807 3C10.7377 3 3 10.8276 3 20.4814C3 30.1352 10.7377 37.9628 20.2807 37.9628C29.8237 37.9628 37.5614 30.1352 37.5614 20.4814C37.5614 10.8276 29.8237 3 20.2807 3ZM23.922 13.7386H29.8699V15.5336H23.922V13.7386ZM20.9133 23.1661C20.9133 27.6145 16.3308 27.474 16.3308 27.474H8.83224V12.8801H16.3308C18.6143 12.8801 20.4118 14.1522 20.4118 16.7666C20.4118 19.381 18.2132 19.5449 18.2132 19.5449C21.1139 19.5449 20.9133 23.1661 20.9133 23.1661ZM32.0377 22.9241H24.5623C24.5623 25.6322 27.1004 25.4605 27.1004 25.4605C29.4996 25.4605 29.4148 23.8919 29.4148 23.8919H31.9529C31.9529 28.0593 27.0155 27.7706 27.0155 27.7706C21.0984 27.7706 21.4765 22.1905 21.4765 22.1905C21.4765 22.1905 21.4687 16.5871 27.0155 16.5871C32.8555 16.5949 32.0377 22.9241 32.0377 22.9241Z" fill="#672C02"/>
<path d="M16.9091 17.4045C16.9091 15.846 15.8498 15.846 15.8498 15.846H11.4845V19.196H15.577C16.2832 19.196 16.9091 18.963 16.9091 17.4045Z" fill="#672C02"/>
</svg>
