<svg width="40" height="40" viewBox="0 0 40 40" fill="none" xmlns="http://www.w3.org/2000/svg">
<path d="M20 10C12.8203 10 7 15.8203 7 23C7 30.1801 12.8203 36 20 36C27.1801 36 33 30.1801 33 23C33 15.8203 27.1801 10 20 10ZM20 34.4006C13.7279 34.4006 8.625 29.2721 8.625 22.9999C8.625 16.7279 13.7279 11.6249 20 11.6249C26.2721 11.6249 31.375 16.7279 31.375 22.9999C31.375 29.272 26.2721 34.4006 20 34.4006ZM24.5959 18.4041C24.2786 18.0868 23.7643 18.0868 23.447 18.4041L20 21.8511L16.553 18.4041C16.2357 18.0868 15.7214 18.0868 15.4037 18.4041C15.0864 18.7214 15.0864 19.2357 15.4037 19.553L18.8507 23L15.4037 26.447C15.0864 26.7639 15.0864 27.2791 15.4037 27.5959C15.721 27.9132 16.2353 27.9132 16.553 27.5959L20 24.1489L23.447 27.5959C23.7643 27.9132 24.2786 27.9132 24.5959 27.5959C24.9132 27.2791 24.9132 26.7639 24.5959 26.447L21.1489 23L24.5959 19.553C24.9136 19.2353 24.9136 18.721 24.5959 18.4041Z" fill="#672C02"/>
</svg>
