<svg width="40" height="40" viewBox="0 0 40 40" fill="none" xmlns="http://www.w3.org/2000/svg">
<path d="M20.2807 3C18.0114 3 15.7643 3.4634 13.6677 4.36373C11.5711 5.26407 9.66606 6.58371 8.0614 8.24731C4.82064 11.6071 3 16.164 3 20.9154C3 28.8341 7.95956 35.5523 14.82 37.9351C15.684 38.0784 15.9605 37.523 15.9605 37.0393V34.0116C11.1738 35.0865 10.1542 31.6109 10.1542 31.6109C9.3593 29.5328 8.23605 28.9774 8.23605 28.9774C6.66351 27.8666 8.35702 27.9025 8.35702 27.9025C10.0851 28.0279 11.001 29.7477 11.001 29.7477C12.5044 32.4709 15.0446 31.6647 16.0296 31.2347C16.1852 30.0702 16.6345 29.2819 17.1183 28.8341C13.282 28.3862 9.25561 26.8454 9.25561 20.0197C9.25561 18.031 9.91228 16.4366 11.0355 15.1646C10.8627 14.7167 10.2579 12.8535 11.2083 10.4349C11.2083 10.4349 12.6599 9.95119 15.9605 12.2623C17.3257 11.8681 18.8118 11.6711 20.2807 11.6711C21.7496 11.6711 23.2357 11.8681 24.6009 12.2623C27.9015 9.95119 29.3531 10.4349 29.3531 10.4349C30.3035 12.8535 29.6987 14.7167 29.5259 15.1646C30.6491 16.4366 31.3058 18.031 31.3058 20.0197C31.3058 26.8634 27.2621 28.3683 23.4085 28.8161C24.0306 29.3715 24.6009 30.4644 24.6009 32.1305V37.0393C24.6009 37.523 24.8774 38.0963 25.7587 37.9351C32.6191 35.5344 37.5614 28.8341 37.5614 20.9154C37.5614 18.5627 37.1144 16.2331 36.246 14.0595C35.3775 11.8859 34.1047 9.91091 32.5 8.24731C30.8953 6.58371 28.9903 5.26407 26.8937 4.36373C24.7971 3.4634 22.55 3 20.2807 3Z" fill="#672C02"/>
</svg>
