<svg width="40" height="40" viewBox="0 0 40 40" fill="none" xmlns="http://www.w3.org/2000/svg">
<path d="M20.2807 0C18.0114 0 15.7643 0.463396 13.6677 1.36373C11.5711 2.26407 9.66606 3.58371 8.0614 5.24731C4.82064 8.6071 3 13.164 3 17.9154C3 25.8341 7.95956 32.5523 14.82 34.9351C15.684 35.0784 15.9605 34.523 15.9605 34.0393V31.0116C11.1738 32.0865 10.1542 28.6109 10.1542 28.6109C9.3593 26.5328 8.23605 25.9774 8.23605 25.9774C6.66351 24.8666 8.35702 24.9025 8.35702 24.9025C10.0851 25.0279 11.001 26.7477 11.001 26.7477C12.5044 29.4709 15.0446 28.6647 16.0296 28.2347C16.1852 27.0702 16.6345 26.2819 17.1183 25.8341C13.282 25.3862 9.25561 23.8454 9.25561 17.0197C9.25561 15.031 9.91228 13.4366 11.0355 12.1646C10.8627 11.7167 10.2579 9.85349 11.2083 7.43491C11.2083 7.43491 12.6599 6.95119 15.9605 9.26228C17.3257 8.86814 18.8118 8.67107 20.2807 8.67107C21.7496 8.67107 23.2357 8.86814 24.6009 9.26228C27.9015 6.95119 29.3531 7.43491 29.3531 7.43491C30.3035 9.85349 29.6987 11.7167 29.5259 12.1646C30.6491 13.4366 31.3058 15.031 31.3058 17.0197C31.3058 23.8634 27.2621 25.3683 23.4085 25.8161C24.0306 26.3715 24.6009 27.4644 24.6009 29.1305V34.0393C24.6009 34.523 24.8774 35.0963 25.7587 34.9351C32.6191 32.5344 37.5614 25.8341 37.5614 17.9154C37.5614 15.5627 37.1144 13.2331 36.246 11.0595C35.3775 8.88589 34.1047 6.91091 32.5 5.24731C30.8953 3.58371 28.9903 2.26407 26.8937 1.36373C24.7971 0.463396 22.55 0 20.2807 0Z" fill="#672C02"/>
</svg>
