<svg width="40" height="40" viewBox="0 0 40 40" fill="none" xmlns="http://www.w3.org/2000/svg">
<path d="M20.2807 11.2022C19.864 11.1811 19.4475 11.2459 19.0563 11.3926C18.6651 11.5394 18.3075 11.7651 18.0052 12.0559C17.703 12.3468 17.4623 12.6968 17.2978 13.0847C17.1333 13.4725 17.0485 13.8902 17.0485 14.3122C17.0485 14.7342 17.1333 15.1519 17.2978 15.5397C17.4623 15.9276 17.703 16.2776 18.0052 16.5685C18.3075 16.8593 18.6651 17.085 19.0563 17.2318C19.4475 17.3785 19.864 17.4433 20.2807 17.4222C20.6974 17.4433 21.1139 17.3785 21.5051 17.2318C21.8963 17.085 22.2539 16.8593 22.5561 16.5685C22.8584 16.2776 23.0991 15.9276 23.2636 15.5397C23.4281 15.1519 23.5129 14.7342 23.5129 14.3122C23.5129 13.8902 23.4281 13.4725 23.2636 13.0847C23.0991 12.6968 22.8584 12.3468 22.5561 12.0559C22.2539 11.7651 21.8963 11.5394 21.5051 11.3926C21.1139 11.2459 20.6974 11.1811 20.2807 11.2022ZM32.6241 3H7.93734C5.21409 3 3 5.23981 3 7.99469V32.9682C3 35.723 5.21409 37.9628 7.93734 37.9628H32.6241C35.3473 37.9628 37.5614 35.723 37.5614 32.9682V7.99469C37.5614 5.23981 35.3473 3 32.6241 3ZM20.2807 7.98689C21.939 7.98689 23.5294 8.6533 24.702 9.83953C25.8746 11.0258 26.5334 12.6346 26.5334 14.3122C26.5334 15.9898 25.8746 17.5986 24.702 18.7849C23.5294 19.9711 21.939 20.6375 20.2807 20.6375C18.6224 20.6375 17.032 19.9711 15.8594 18.7849C14.6868 17.5986 14.028 15.9898 14.028 14.3122C14.028 12.6346 14.6868 11.0258 15.8594 9.83953C17.032 8.6533 18.6224 7.98689 20.2807 7.98689ZM24.8555 21.1214C26.1515 20.0912 27.1313 20.6921 27.4861 21.4023C28.0879 22.651 27.4013 23.2519 25.8275 24.2899C24.5083 25.1405 22.6877 25.4761 21.4919 25.601L22.4948 26.6077L26.1746 30.3303C27.517 31.7273 25.326 33.9047 23.9683 32.5623C23.0425 31.6102 21.6925 30.2445 20.2884 28.8241L16.6085 32.5623C15.2431 33.9047 13.0598 31.7039 14.4176 30.3303L15.3819 29.3548C16.1842 28.5432 17.1254 27.5833 18.0975 26.6077L19.0927 25.601C17.9046 25.4761 16.0608 25.1561 14.7262 24.2899C13.1601 23.2519 12.4658 22.6588 13.0753 21.4023C13.4301 20.6921 14.4099 20.0912 15.7059 21.1214C15.7059 21.1214 17.4572 22.5261 20.2807 22.5261C23.1042 22.5261 24.8555 21.1214 24.8555 21.1214Z" fill="#672C02"/>
</svg>
