<svg width="40" height="40" viewBox="0 0 40 40" fill="none" xmlns="http://www.w3.org/2000/svg">
<path d="M20.2807 8.20222C19.864 8.1811 19.4475 8.24588 19.0563 8.39264C18.6651 8.5394 18.3075 8.76506 18.0052 9.05593C17.703 9.34679 17.4623 9.69679 17.2978 10.0847C17.1333 10.4725 17.0485 10.8902 17.0485 11.3122C17.0485 11.7342 17.1333 12.1519 17.2978 12.5397C17.4623 12.9276 17.703 13.2776 18.0052 13.5685C18.3075 13.8593 18.6651 14.085 19.0563 14.2318C19.4475 14.3785 19.864 14.4433 20.2807 14.4222C20.6974 14.4433 21.1139 14.3785 21.5051 14.2318C21.8963 14.085 22.2539 13.8593 22.5561 13.5685C22.8584 13.2776 23.0991 12.9276 23.2636 12.5397C23.4281 12.1519 23.5129 11.7342 23.5129 11.3122C23.5129 10.8902 23.4281 10.4725 23.2636 10.0847C23.0991 9.69679 22.8584 9.34679 22.5561 9.05593C22.2539 8.76506 21.8963 8.5394 21.5051 8.39264C21.1139 8.24588 20.6974 8.1811 20.2807 8.20222ZM32.6241 0H7.93734C5.21409 0 3 2.23981 3 4.99469V29.9682C3 32.723 5.21409 34.9628 7.93734 34.9628H32.6241C35.3473 34.9628 37.5614 32.723 37.5614 29.9682V4.99469C37.5614 2.23981 35.3473 0 32.6241 0ZM20.2807 4.98689C21.939 4.98689 23.5294 5.6533 24.702 6.83953C25.8746 8.02575 26.5334 9.63462 26.5334 11.3122C26.5334 12.9898 25.8746 14.5986 24.702 15.7849C23.5294 16.9711 21.939 17.6375 20.2807 17.6375C18.6224 17.6375 17.032 16.9711 15.8594 15.7849C14.6868 14.5986 14.028 12.9898 14.028 11.3122C14.028 9.63462 14.6868 8.02575 15.8594 6.83953C17.032 5.6533 18.6224 4.98689 20.2807 4.98689ZM24.8555 18.1214C26.1515 17.0912 27.1313 17.6921 27.4861 18.4023C28.0879 19.651 27.4013 20.2519 25.8275 21.2899C24.5083 22.1405 22.6877 22.4761 21.4919 22.601L22.4948 23.6077L26.1746 27.3303C27.517 28.7273 25.326 30.9047 23.9683 29.5623C23.0425 28.6102 21.6925 27.2445 20.2884 25.8241L16.6085 29.5623C15.2431 30.9047 13.0598 28.7039 14.4176 27.3303L15.3819 26.3548C16.1842 25.5432 17.1254 24.5833 18.0975 23.6077L19.0927 22.601C17.9046 22.4761 16.0608 22.1561 14.7262 21.2899C13.1601 20.2519 12.4658 19.6588 13.0753 18.4023C13.4301 17.6921 14.4099 17.0912 15.7059 18.1214C15.7059 18.1214 17.4572 19.5261 20.2807 19.5261C23.1042 19.5261 24.8555 18.1214 24.8555 18.1214Z" fill="#672C02"/>
</svg>
