<svg width="40" height="40" viewBox="0 0 40 40" fill="none" xmlns="http://www.w3.org/2000/svg">
<path d="M20.2807 3C16.8629 3 13.5219 4.02527 10.6801 5.94615C7.83827 7.86703 5.62336 10.5973 4.31542 13.7916C3.00749 16.9859 2.66527 20.5008 3.33205 23.8919C3.99883 27.2829 5.64466 30.3978 8.06141 32.8426C10.4782 35.2875 13.5573 36.9524 16.9094 37.6269C20.2615 38.3015 23.7361 37.9553 26.8937 36.6321C30.0514 35.309 32.7502 33.0684 34.6491 30.1936C36.5479 27.3188 37.5614 23.9389 37.5614 20.4814C37.5614 18.1857 37.1144 15.9125 36.246 13.7916C35.3775 11.6706 34.1047 9.74349 32.5 8.12019C30.8953 6.49689 28.9903 5.20922 26.8937 4.33069C24.7971 3.45217 22.55 3 20.2807 3ZM25.776 29.4878C25.7115 29.6512 25.6132 29.7986 25.4877 29.9203C25.3622 30.042 25.2124 30.1352 25.0484 30.1934C24.8844 30.2517 24.7099 30.2738 24.5368 30.2583C24.3636 30.2427 24.1957 30.1898 24.0444 30.1032L19.3527 26.4146L16.3424 29.2256C16.2726 29.2778 16.1908 29.3114 16.1048 29.3233C16.0187 29.3352 15.9311 29.3251 15.8499 29.2938L16.4271 24.0686L16.4444 24.0843L16.4565 23.9812C16.4565 23.9812 24.8981 16.2055 25.242 15.8751C25.5911 15.5447 25.4753 15.473 25.4753 15.473C25.496 15.0709 24.8514 15.473 24.8514 15.473L13.6657 22.7523L9.00851 21.1475C9.00851 21.1475 8.29308 20.8887 8.22569 20.3171C8.15484 19.7507 9.03097 19.443 9.03097 19.443L27.5507 11.9994C27.5507 11.9994 29.0731 11.3142 29.0731 12.4505L25.776 29.4878Z" fill="#672C02"/>
</svg>
