<svg width="40" height="40" viewBox="0 0 40 40" fill="none" xmlns="http://www.w3.org/2000/svg">
<path d="M20.2807 0C16.8629 0 13.5219 1.02527 10.6801 2.94615C7.83827 4.86703 5.62336 7.59726 4.31542 10.7916C3.00749 13.9859 2.66527 17.5008 3.33205 20.8919C3.99883 24.2829 5.64466 27.3978 8.06141 29.8426C10.4782 32.2875 13.5573 33.9524 16.9094 34.6269C20.2615 35.3015 23.7361 34.9553 26.8937 33.6321C30.0514 32.309 32.7502 30.0684 34.6491 27.1936C36.5479 24.3188 37.5614 20.9389 37.5614 17.4814C37.5614 15.1857 37.1144 12.9125 36.246 10.7916C35.3775 8.67062 34.1047 6.74349 32.5 5.12019C30.8953 3.49689 28.9903 2.20922 26.8937 1.33069C24.7971 0.45217 22.55 0 20.2807 0ZM25.776 26.4878C25.7115 26.6512 25.6132 26.7986 25.4877 26.9203C25.3622 27.042 25.2124 27.1352 25.0484 27.1934C24.8844 27.2517 24.7099 27.2738 24.5368 27.2583C24.3636 27.2427 24.1957 27.1898 24.0444 27.1032L19.3527 23.4146L16.3424 26.2256C16.2726 26.2778 16.1908 26.3114 16.1048 26.3233C16.0187 26.3352 15.9311 26.3251 15.8499 26.2938L16.4271 21.0686L16.4444 21.0843L16.4565 20.9812C16.4565 20.9812 24.8981 13.2055 25.242 12.8751C25.5911 12.5447 25.4753 12.473 25.4753 12.473C25.496 12.0709 24.8514 12.473 24.8514 12.473L13.6657 19.7523L9.00851 18.1475C9.00851 18.1475 8.29308 17.8887 8.22569 17.3171C8.15484 16.7507 9.03097 16.443 9.03097 16.443L27.5507 8.99943C27.5507 8.99943 29.0731 8.31416 29.0731 9.45045L25.776 26.4878Z" fill="#672C02"/>
</svg>
