<svg width="40" height="40" viewBox="0 0 40 40" fill="none" xmlns="http://www.w3.org/2000/svg">
<path d="M25.5911 0H14.9893C5.30179 0 3 2.33027 3 12.1094V22.836C3 32.6326 5.28624 34.9628 14.9703 34.9628H25.5738C35.2579 34.9628 37.5614 32.6501 37.5614 22.8535V12.1286C37.5614 2.32853 35.2752 0 25.5911 0ZM30.9014 24.946H28.3802C27.4263 24.946 27.1394 24.1646 25.4286 22.4339C23.9356 20.9777 23.3048 20.7959 22.9264 20.7959C22.4045 20.7959 22.2611 20.941 22.2611 21.67V23.9635C22.2611 24.5841 22.0623 24.9477 20.4604 24.9477C18.906 24.8409 17.3988 24.3626 16.0627 23.5522C14.7265 22.7417 13.5994 21.6221 12.774 20.2854C10.8149 17.8215 9.45266 14.9282 8.79595 11.8367C8.79595 11.4538 8.93938 11.1077 9.65998 11.1077H12.1812C12.8293 11.1077 13.0625 11.3996 13.3148 12.0727C14.5383 15.7158 16.6258 18.8834 17.4726 18.8834C17.7975 18.8834 17.9392 18.7383 17.9392 17.9185V14.1669C17.832 12.4555 16.9334 12.3104 16.9334 11.6916C16.945 11.5283 17.0189 11.3761 17.1396 11.2671C17.2602 11.1581 17.4181 11.1009 17.5797 11.1077H21.5405C22.0813 11.1077 22.2611 11.3804 22.2611 12.036V17.0986C22.2611 17.6457 22.4944 17.8276 22.6568 17.8276C22.9817 17.8276 23.2322 17.6457 23.8267 17.0444C25.1035 15.4692 26.1467 13.7143 26.9234 11.8349C27.0033 11.6095 27.1536 11.4166 27.3516 11.2853C27.5496 11.1541 27.7845 11.0917 28.0207 11.1077H30.542C31.2971 11.1077 31.4579 11.4905 31.2971 12.036C30.3804 14.1135 29.2461 16.0856 27.9136 17.9185C27.6423 18.338 27.5334 18.5565 27.9136 19.0478C28.1642 19.4306 29.0472 20.1771 29.6416 20.8868C30.5052 21.7588 31.2225 22.7673 31.7654 23.8726C31.9815 24.5824 31.6203 24.946 30.9014 24.946Z" fill="#672C02"/>
</svg>
