<svg width="40" height="40" viewBox="0 0 40 40" fill="none" xmlns="http://www.w3.org/2000/svg">
<path d="M25.5911 3H14.9893C5.30179 3 3 5.33027 3 15.1094V25.836C3 35.6326 5.28624 37.9628 14.9703 37.9628H25.5738C35.2579 37.9628 37.5614 35.6501 37.5614 25.8535V15.1286C37.5614 5.32853 35.2752 3 25.5911 3ZM30.9014 27.946H28.3802C27.4263 27.946 27.1394 27.1646 25.4286 25.4339C23.9356 23.9777 23.3048 23.7959 22.9264 23.7959C22.4045 23.7959 22.2611 23.941 22.2611 24.67V26.9635C22.2611 27.5841 22.0623 27.9477 20.4604 27.9477C18.906 27.8409 17.3988 27.3626 16.0627 26.5522C14.7265 25.7417 13.5994 24.6221 12.774 23.2854C10.8149 20.8215 9.45266 17.9282 8.79595 14.8367C8.79595 14.4538 8.93938 14.1077 9.65998 14.1077H12.1812C12.8293 14.1077 13.0625 14.3996 13.3148 15.0727C14.5383 18.7158 16.6258 21.8834 17.4726 21.8834C17.7975 21.8834 17.9392 21.7383 17.9392 20.9185V17.1669C17.832 15.4555 16.9334 15.3104 16.9334 14.6916C16.945 14.5283 17.0189 14.3761 17.1396 14.2671C17.2602 14.1581 17.4181 14.1009 17.5797 14.1077H21.5405C22.0813 14.1077 22.2611 14.3804 22.2611 15.036V20.0986C22.2611 20.6457 22.4944 20.8276 22.6568 20.8276C22.9817 20.8276 23.2322 20.6457 23.8267 20.0444C25.1035 18.4692 26.1467 16.7143 26.9234 14.8349C27.0033 14.6095 27.1536 14.4166 27.3516 14.2853C27.5496 14.1541 27.7845 14.0917 28.0207 14.1077H30.542C31.2971 14.1077 31.4579 14.4905 31.2971 15.036C30.3804 17.1135 29.2461 19.0856 27.9136 20.9185C27.6423 21.338 27.5334 21.5565 27.9136 22.0478C28.1642 22.4306 29.0472 23.1771 29.6416 23.8868C30.5052 24.7588 31.2225 25.7673 31.7654 26.8726C31.9815 27.5824 31.6203 27.946 30.9014 27.946Z" fill="#672C02"/>
</svg>
