<svg width="38" height="38" viewBox="0 0 38 38" fill="none" xmlns="http://www.w3.org/2000/svg">
<path d="M7 18.5H31C31.2761 18.5 31.5 18.7239 31.5 19C31.5 19.2761 31.2761 19.5 31 19.5H7C6.72386 19.5 6.5 19.2761 6.5 19C6.5 18.7239 6.72386 18.5 7 18.5ZM7 25.5H31C31.2761 25.5 31.5 25.7239 31.5 26C31.5 26.2761 31.2761 26.5 31 26.5H7C6.72386 26.5 6.5 26.2761 6.5 26C6.5 25.7239 6.72386 25.5 7 25.5ZM7 11.5H31C31.2761 11.5 31.5 11.7239 31.5 12C31.5 12.2761 31.2761 12.5 31 12.5H7C6.72386 12.5 6.5 12.2761 6.5 12C6.5 11.7239 6.72386 11.5 7 11.5Z" fill="#672C02" stroke="#672C02"/>
</svg>
